<svg width="1440" height="496" viewBox="0 0 1440 496" fill="none" xmlns="http://www.w3.org/2000/svg">
<g clip-path="url(#clip0_1_989)">
<rect width="1440" height="496" fill="#6483F6"/>
<mask id="mask0_1_989" style="mask-type:alpha" maskUnits="userSpaceOnUse" x="0" y="0" width="1440" height="496">
<rect width="1440" height="496" fill="white"/>
</mask>
<g mask="url(#mask0_1_989)">
<path opacity="0.247745" d="M184 -48.5C184 53.3965 101.397 136 -0.5 136C-102.397 136 -185 53.3965 -185 -48.5C-185 -150.397 -102.397 -233 -0.5 -233C101.397 -233 184 -150.397 184 -48.5Z" stroke="#7BE8FB" stroke-width="80"/>
<path opacity="0.247745" d="M1645 575.5C1645 688.442 1553.44 780 1440.5 780C1327.56 780 1236 688.442 1236 575.5C1236 462.558 1327.56 371 1440.5 371C1553.44 371 1645 462.558 1645 575.5Z" stroke="#7BE8FB" stroke-width="40"/>
<g opacity="0.499558">
<path opacity="0.254767" fill-rule="evenodd" clip-rule="evenodd" d="M398.027 334.98C399.64 332.685 402.632 326.856 404.902 326.036C406.364 325.508 405.938 330.972 405.956 332.014C406.026 336.045 405.633 340.05 405.147 344.047C404.273 351.256 401.413 357.676 397.49 363.811C395.471 366.968 393.104 370.164 389.824 372.133C388.315 373.041 386.499 373.192 385.008 373.974C383.272 374.884 384.217 374.148 383.435 375.954C382.349 378.461 382.001 381.696 381.498 384.371C379.19 396.652 373.602 461.573 374.571 474.065C374.657 475.172 373.11 475.437 373.033 474.085C372.622 466.918 376.174 417.285 377.965 401.054C379.757 384.823 381.57 370.483 383.388 364.868C385.593 358.055 389.576 349.862 392.892 343.509C394.432 340.557 396.111 337.708 398.027 334.98Z" fill="white"/>
<path opacity="0.248489" fill-rule="evenodd" clip-rule="evenodd" d="M410.621 414.868C414.827 411.808 419.379 417.584 415.573 420.645C413.469 422.337 411.27 421.735 410.031 420.325C409.228 421.296 408.475 422.311 407.752 423.169C405.55 425.783 403.468 428.459 401.478 431.197C397.345 436.886 393.803 442.896 390.1 448.797C386.445 454.62 382.82 460.473 379.507 466.444C376.701 471.503 372.961 477.454 372 483C373.458 471.238 378.989 459.933 385.576 449.564C392.11 439.28 399.607 428.049 409.723 419.933C408.694 418.432 408.665 416.29 410.621 414.868Z" fill="white"/>
<path opacity="0.251628" fill-rule="evenodd" clip-rule="evenodd" d="M330.728 386.012C333.057 386.467 336.861 391.738 338.781 393.747C341.062 396.133 343.132 398.677 345.082 401.342C349.282 407.078 353.038 413.178 356.231 419.538C361.438 429.907 365.609 440.551 368.637 451.842C370.49 458.753 371.689 465.917 372.4 473.031C372.535 474.372 373.94 484.716 371.915 484.994C370.093 485.245 370.656 477.14 370.568 476.038C369.574 463.6 366.598 451.498 362.459 439.775C361.557 437.221 360.719 434.093 359.277 431.795C358.239 430.139 359.27 430.716 357.445 430.09C355.878 429.552 354.093 429.683 352.488 429.024C349.002 427.594 346.211 424.817 343.764 422.024C339.009 416.595 335.241 410.723 333.277 403.767C332.188 399.91 331.187 396.031 330.631 392.055C330.487 391.027 329.228 385.718 330.728 386.012Z" fill="white"/>
<path opacity="0.498396" fill-rule="evenodd" clip-rule="evenodd" d="M339.439 298.256C348.354 313.574 355.681 330.4 360.412 347.443C363.278 357.769 365.282 368.365 367.274 378.885C370.357 395.173 373.274 411.459 374.104 428.037C374.939 444.71 376.589 463.941 371.078 480C373.831 463.696 371.21 446.341 370.746 429.935C370.524 422.104 369.882 414.348 369.039 406.562C368.221 399.01 366.884 391.493 365.64 383.999C365.034 380.35 364.397 376.706 363.749 373.064C363.555 371.977 363.474 368.753 362.778 368.011C362.078 367.263 358.505 366.959 357.383 366.411C355.125 365.306 353 363.738 351.12 362.081C347.515 358.904 344.379 354.753 341.904 350.661C336.178 341.192 333.888 329.637 334.004 318.672C334.026 316.543 337.482 293.617 336.094 293.301C336.178 293.204 336.257 293.104 336.332 293C337.382 294.743 338.414 296.498 339.439 298.256Z" fill="white"/>
<path opacity="0.497396" fill-rule="evenodd" clip-rule="evenodd" d="M435.402 353.485C435.539 353.289 436.429 351.926 435.981 352.013C436.894 351.836 434.726 353.516 437 352.485C435.92 353.498 436.543 354.814 436.558 356.178C436.581 358.391 436.208 360.587 435.789 362.753C435.125 366.176 434.137 369.505 432.703 372.69C429.577 379.63 424.27 386.311 417.969 390.65C414.858 392.792 411.809 393.521 408.261 394.508C406.02 395.131 405.843 396.282 404.653 398.442C402.177 402.941 399.744 407.423 397.56 412.074C394.953 417.627 392.421 423.186 390.033 428.837C381.988 447.871 375.441 467.592 372.002 488C371.918 475.973 374.719 463.587 378.252 452.124C380.826 443.772 384.176 435.721 387.75 427.751C388.616 425.82 389.928 423.337 390.296 421.205C390.554 419.712 389.766 418.275 389.406 416.702C388.001 410.575 388.101 403.712 389.335 397.552C390.696 390.76 394.63 387.608 401.287 386.646C403.721 386.294 406.815 386.423 409.047 385.392C411.479 384.269 412.482 380.579 413.865 378.21C417.579 371.847 421.992 365.745 427.06 360.383C428.463 358.899 429.972 357.529 431.572 356.26C432.582 355.459 434.714 354.472 435.402 353.485Z" fill="white"/>
<path fill-rule="evenodd" clip-rule="evenodd" d="M359.782 480.28C359.37 477.498 361.525 475 364.337 475H381.663C384.475 475 386.63 477.498 386.218 480.28L385.485 485.229C384.568 491.417 379.256 496 373 496V496C366.744 496 361.432 491.417 360.515 485.229L359.782 480.28Z" fill="white"/>
</g>
</g>
<g opacity="0.250581" clip-path="url(#clip1_1_989)">
<path opacity="0.504999" fill-rule="evenodd" clip-rule="evenodd" d="M1026 103C1039.13 103 1049.77 94.8705 1049.77 84.8422C1049.77 74.8139 1039.13 66.6843 1026 66.6843C1012.87 66.6843 1002.23 74.8139 1002.23 84.8422C1002.23 94.8705 1012.87 103 1026 103Z" fill="white"/>
<path fill-rule="evenodd" clip-rule="evenodd" d="M1063 89.3509C1063 67.0657 1046.43 49 1026 49C1005.57 49 989 67.0657 989 89.3509" fill="white"/>
<rect x="1024" width="5" height="72" fill="white"/>
</g>
<g opacity="0.501907">
<mask id="mask1_1_989" style="mask-type:alpha" maskUnits="userSpaceOnUse" x="615" y="408" width="244" height="244">
<path d="M737 652C804.379 652 859 597.379 859 530C859 462.621 804.379 408 737 408C669.621 408 615 462.621 615 530C615 597.379 669.621 652 737 652Z" fill="white"/>
</mask>
<g mask="url(#mask1_1_989)">
<path fill-rule="evenodd" clip-rule="evenodd" d="M779.526 402.443C779.526 403.548 778.631 404.443 777.526 404.443C776.422 404.443 775.526 403.548 775.526 402.443C775.526 401.339 776.422 400.443 777.526 400.443C778.631 400.443 779.526 401.339 779.526 402.443ZM777.526 420.443C778.631 420.443 779.526 419.548 779.526 418.443C779.526 417.339 778.631 416.443 777.526 416.443C776.422 416.443 775.526 417.339 775.526 418.443C775.526 419.548 776.422 420.443 777.526 420.443ZM793.526 420.443C794.631 420.443 795.526 419.548 795.526 418.443C795.526 417.339 794.631 416.443 793.526 416.443C792.422 416.443 791.526 417.339 791.526 418.443C791.526 419.548 792.422 420.443 793.526 420.443ZM811.526 418.443C811.526 419.548 810.631 420.443 809.526 420.443C808.422 420.443 807.526 419.548 807.526 418.443C807.526 417.339 808.422 416.443 809.526 416.443C810.631 416.443 811.526 417.339 811.526 418.443ZM825.526 420.443C826.631 420.443 827.526 419.548 827.526 418.443C827.526 417.339 826.631 416.443 825.526 416.443C824.422 416.443 823.526 417.339 823.526 418.443C823.526 419.548 824.422 420.443 825.526 420.443ZM843.526 418.443C843.526 419.548 842.631 420.443 841.526 420.443C840.422 420.443 839.526 419.548 839.526 418.443C839.526 417.339 840.422 416.443 841.526 416.443C842.631 416.443 843.526 417.339 843.526 418.443ZM857.526 420.443C858.631 420.443 859.526 419.548 859.526 418.443C859.526 417.339 858.631 416.443 857.526 416.443C856.422 416.443 855.526 417.339 855.526 418.443C855.526 419.548 856.422 420.443 857.526 420.443ZM793.526 404.443C794.631 404.443 795.526 403.548 795.526 402.443C795.526 401.339 794.631 400.443 793.526 400.443C792.422 400.443 791.526 401.339 791.526 402.443C791.526 403.548 792.422 404.443 793.526 404.443ZM811.526 402.443C811.526 403.548 810.631 404.443 809.526 404.443C808.422 404.443 807.526 403.548 807.526 402.443C807.526 401.339 808.422 400.443 809.526 400.443C810.631 400.443 811.526 401.339 811.526 402.443ZM825.526 404.443C826.631 404.443 827.526 403.548 827.526 402.443C827.526 401.339 826.631 400.443 825.526 400.443C824.422 400.443 823.526 401.339 823.526 402.443C823.526 403.548 824.422 404.443 825.526 404.443ZM843.526 402.443C843.526 403.548 842.631 404.443 841.526 404.443C840.422 404.443 839.526 403.548 839.526 402.443C839.526 401.339 840.422 400.443 841.526 400.443C842.631 400.443 843.526 401.339 843.526 402.443ZM857.526 404.443C858.631 404.443 859.526 403.548 859.526 402.443C859.526 401.339 858.631 400.443 857.526 400.443C856.422 400.443 855.526 401.339 855.526 402.443C855.526 403.548 856.422 404.443 857.526 404.443ZM673.526 420.443C674.631 420.443 675.526 419.548 675.526 418.443C675.526 417.339 674.631 416.443 673.526 416.443C672.422 416.443 671.526 417.339 671.526 418.443C671.526 419.548 672.422 420.443 673.526 420.443ZM689.526 420.443C690.631 420.443 691.526 419.548 691.526 418.443C691.526 417.339 690.631 416.443 689.526 416.443C688.422 416.443 687.526 417.339 687.526 418.443C687.526 419.548 688.422 420.443 689.526 420.443ZM707.526 418.443C707.526 419.548 706.631 420.443 705.526 420.443C704.422 420.443 703.526 419.548 703.526 418.443C703.526 417.339 704.422 416.443 705.526 416.443C706.631 416.443 707.526 417.339 707.526 418.443ZM721.526 420.443C722.631 420.443 723.526 419.548 723.526 418.443C723.526 417.339 722.631 416.443 721.526 416.443C720.422 416.443 719.526 417.339 719.526 418.443C719.526 419.548 720.422 420.443 721.526 420.443ZM739.526 418.443C739.526 419.548 738.631 420.443 737.526 420.443C736.422 420.443 735.526 419.548 735.526 418.443C735.526 417.339 736.422 416.443 737.526 416.443C738.631 416.443 739.526 417.339 739.526 418.443ZM753.526 420.443C754.631 420.443 755.526 419.548 755.526 418.443C755.526 417.339 754.631 416.443 753.526 416.443C752.422 416.443 751.526 417.339 751.526 418.443C751.526 419.548 752.422 420.443 753.526 420.443ZM673.526 404.443C674.631 404.443 675.526 403.548 675.526 402.443C675.526 401.339 674.631 400.443 673.526 400.443C672.422 400.443 671.526 401.339 671.526 402.443C671.526 403.548 672.422 404.443 673.526 404.443ZM683.526 434.443C683.526 435.548 682.631 436.443 681.526 436.443C680.422 436.443 679.526 435.548 679.526 434.443C679.526 433.339 680.422 432.443 681.526 432.443C682.631 432.443 683.526 433.339 683.526 434.443ZM681.526 452.443C682.631 452.443 683.526 451.548 683.526 450.443C683.526 449.339 682.631 448.443 681.526 448.443C680.422 448.443 679.526 449.339 679.526 450.443C679.526 451.548 680.422 452.443 681.526 452.443ZM697.526 452.443C698.631 452.443 699.526 451.548 699.526 450.443C699.526 449.339 698.631 448.443 697.526 448.443C696.422 448.443 695.526 449.339 695.526 450.443C695.526 451.548 696.422 452.443 697.526 452.443ZM715.526 450.443C715.526 451.548 714.631 452.443 713.526 452.443C712.422 452.443 711.526 451.548 711.526 450.443C711.526 449.339 712.422 448.443 713.526 448.443C714.631 448.443 715.526 449.339 715.526 450.443ZM729.526 452.443C730.631 452.443 731.526 451.548 731.526 450.443C731.526 449.339 730.631 448.443 729.526 448.443C728.422 448.443 727.526 449.339 727.526 450.443C727.526 451.548 728.422 452.443 729.526 452.443ZM747.526 450.443C747.526 451.548 746.631 452.443 745.526 452.443C744.422 452.443 743.526 451.548 743.526 450.443C743.526 449.339 744.422 448.443 745.526 448.443C746.631 448.443 747.526 449.339 747.526 450.443ZM761.526 452.443C762.631 452.443 763.526 451.548 763.526 450.443C763.526 449.339 762.631 448.443 761.526 448.443C760.422 448.443 759.526 449.339 759.526 450.443C759.526 451.548 760.422 452.443 761.526 452.443ZM697.526 436.443C698.631 436.443 699.526 435.548 699.526 434.443C699.526 433.339 698.631 432.443 697.526 432.443C696.422 432.443 695.526 433.339 695.526 434.443C695.526 435.548 696.422 436.443 697.526 436.443ZM715.526 434.443C715.526 435.548 714.631 436.443 713.526 436.443C712.422 436.443 711.526 435.548 711.526 434.443C711.526 433.339 712.422 432.443 713.526 432.443C714.631 432.443 715.526 433.339 715.526 434.443ZM729.526 436.443C730.631 436.443 731.526 435.548 731.526 434.443C731.526 433.339 730.631 432.443 729.526 432.443C728.422 432.443 727.526 433.339 727.526 434.443C727.526 435.548 728.422 436.443 729.526 436.443ZM747.526 434.443C747.526 435.548 746.631 436.443 745.526 436.443C744.422 436.443 743.526 435.548 743.526 434.443C743.526 433.339 744.422 432.443 745.526 432.443C746.631 432.443 747.526 433.339 747.526 434.443ZM761.526 436.443C762.631 436.443 763.526 435.548 763.526 434.443C763.526 433.339 762.631 432.443 761.526 432.443C760.422 432.443 759.526 433.339 759.526 434.443C759.526 435.548 760.422 436.443 761.526 436.443ZM689.526 404.443C690.631 404.443 691.526 403.548 691.526 402.443C691.526 401.339 690.631 400.443 689.526 400.443C688.422 400.443 687.526 401.339 687.526 402.443C687.526 403.548 688.422 404.443 689.526 404.443ZM779.526 434.443C779.526 435.548 778.631 436.443 777.526 436.443C776.422 436.443 775.526 435.548 775.526 434.443C775.526 433.339 776.422 432.443 777.526 432.443C778.631 432.443 779.526 433.339 779.526 434.443ZM777.526 452.443C778.631 452.443 779.526 451.548 779.526 450.443C779.526 449.339 778.631 448.443 777.526 448.443C776.422 448.443 775.526 449.339 775.526 450.443C775.526 451.548 776.422 452.443 777.526 452.443ZM793.526 452.443C794.631 452.443 795.526 451.548 795.526 450.443C795.526 449.339 794.631 448.443 793.526 448.443C792.422 448.443 791.526 449.339 791.526 450.443C791.526 451.548 792.422 452.443 793.526 452.443ZM811.526 450.443C811.526 451.548 810.631 452.443 809.526 452.443C808.422 452.443 807.526 451.548 807.526 450.443C807.526 449.339 808.422 448.443 809.526 448.443C810.631 448.443 811.526 449.339 811.526 450.443ZM825.526 452.443C826.631 452.443 827.526 451.548 827.526 450.443C827.526 449.339 826.631 448.443 825.526 448.443C824.422 448.443 823.526 449.339 823.526 450.443C823.526 451.548 824.422 452.443 825.526 452.443ZM843.526 450.443C843.526 451.548 842.631 452.443 841.526 452.443C840.422 452.443 839.526 451.548 839.526 450.443C839.526 449.339 840.422 448.443 841.526 448.443C842.631 448.443 843.526 449.339 843.526 450.443ZM857.526 452.443C858.631 452.443 859.526 451.548 859.526 450.443C859.526 449.339 858.631 448.443 857.526 448.443C856.422 448.443 855.526 449.339 855.526 450.443C855.526 451.548 856.422 452.443 857.526 452.443ZM793.526 436.443C794.631 436.443 795.526 435.548 795.526 434.443C795.526 433.339 794.631 432.443 793.526 432.443C792.422 432.443 791.526 433.339 791.526 434.443C791.526 435.548 792.422 436.443 793.526 436.443ZM811.526 434.443C811.526 435.548 810.631 436.443 809.526 436.443C808.422 436.443 807.526 435.548 807.526 434.443C807.526 433.339 808.422 432.443 809.526 432.443C810.631 432.443 811.526 433.339 811.526 434.443ZM825.526 436.443C826.631 436.443 827.526 435.548 827.526 434.443C827.526 433.339 826.631 432.443 825.526 432.443C824.422 432.443 823.526 433.339 823.526 434.443C823.526 435.548 824.422 436.443 825.526 436.443ZM843.526 434.443C843.526 435.548 842.631 436.443 841.526 436.443C840.422 436.443 839.526 435.548 839.526 434.443C839.526 433.339 840.422 432.443 841.526 432.443C842.631 432.443 843.526 433.339 843.526 434.443ZM857.526 436.443C858.631 436.443 859.526 435.548 859.526 434.443C859.526 433.339 858.631 432.443 857.526 432.443C856.422 432.443 855.526 433.339 855.526 434.443C855.526 435.548 856.422 436.443 857.526 436.443ZM705.526 404.443C706.631 404.443 707.526 403.548 707.526 402.443C707.526 401.339 706.631 400.443 705.526 400.443C704.422 400.443 703.526 401.339 703.526 402.443C703.526 403.548 704.422 404.443 705.526 404.443ZM723.526 402.443C723.526 403.548 722.631 404.443 721.526 404.443C720.422 404.443 719.526 403.548 719.526 402.443C719.526 401.339 720.422 400.443 721.526 400.443C722.631 400.443 723.526 401.339 723.526 402.443ZM737.526 404.443C738.631 404.443 739.526 403.548 739.526 402.443C739.526 401.339 738.631 400.443 737.526 400.443C736.422 400.443 735.526 401.339 735.526 402.443C735.526 403.548 736.422 404.443 737.526 404.443ZM755.526 402.443C755.526 403.548 754.631 404.443 753.526 404.443C752.422 404.443 751.526 403.548 751.526 402.443C751.526 401.339 752.422 400.443 753.526 400.443C754.631 400.443 755.526 401.339 755.526 402.443Z" fill="white"/>
<path fill-rule="evenodd" clip-rule="evenodd" d="M779.526 466.443C779.526 467.548 778.631 468.443 777.526 468.443C776.422 468.443 775.526 467.548 775.526 466.443C775.526 465.339 776.422 464.443 777.526 464.443C778.631 464.443 779.526 465.339 779.526 466.443ZM777.526 484.443C778.631 484.443 779.526 483.548 779.526 482.443C779.526 481.339 778.631 480.443 777.526 480.443C776.422 480.443 775.526 481.339 775.526 482.443C775.526 483.548 776.422 484.443 777.526 484.443ZM793.526 484.443C794.631 484.443 795.526 483.548 795.526 482.443C795.526 481.339 794.631 480.443 793.526 480.443C792.422 480.443 791.526 481.339 791.526 482.443C791.526 483.548 792.422 484.443 793.526 484.443ZM811.526 482.443C811.526 483.548 810.631 484.443 809.526 484.443C808.422 484.443 807.526 483.548 807.526 482.443C807.526 481.339 808.422 480.443 809.526 480.443C810.631 480.443 811.526 481.339 811.526 482.443ZM825.526 484.443C826.631 484.443 827.526 483.548 827.526 482.443C827.526 481.339 826.631 480.443 825.526 480.443C824.422 480.443 823.526 481.339 823.526 482.443C823.526 483.548 824.422 484.443 825.526 484.443ZM843.526 482.443C843.526 483.548 842.631 484.443 841.526 484.443C840.422 484.443 839.526 483.548 839.526 482.443C839.526 481.339 840.422 480.443 841.526 480.443C842.631 480.443 843.526 481.339 843.526 482.443ZM857.526 484.443C858.631 484.443 859.526 483.548 859.526 482.443C859.526 481.339 858.631 480.443 857.526 480.443C856.422 480.443 855.526 481.339 855.526 482.443C855.526 483.548 856.422 484.443 857.526 484.443ZM793.526 468.443C794.631 468.443 795.526 467.548 795.526 466.443C795.526 465.339 794.631 464.443 793.526 464.443C792.422 464.443 791.526 465.339 791.526 466.443C791.526 467.548 792.422 468.443 793.526 468.443ZM811.526 466.443C811.526 467.548 810.631 468.443 809.526 468.443C808.422 468.443 807.526 467.548 807.526 466.443C807.526 465.339 808.422 464.443 809.526 464.443C810.631 464.443 811.526 465.339 811.526 466.443ZM825.526 468.443C826.631 468.443 827.526 467.548 827.526 466.443C827.526 465.339 826.631 464.443 825.526 464.443C824.422 464.443 823.526 465.339 823.526 466.443C823.526 467.548 824.422 468.443 825.526 468.443ZM843.526 466.443C843.526 467.548 842.631 468.443 841.526 468.443C840.422 468.443 839.526 467.548 839.526 466.443C839.526 465.339 840.422 464.443 841.526 464.443C842.631 464.443 843.526 465.339 843.526 466.443ZM857.526 468.443C858.631 468.443 859.526 467.548 859.526 466.443C859.526 465.339 858.631 464.443 857.526 464.443C856.422 464.443 855.526 465.339 855.526 466.443C855.526 467.548 856.422 468.443 857.526 468.443ZM673.526 484.443C674.631 484.443 675.526 483.548 675.526 482.443C675.526 481.339 674.631 480.443 673.526 480.443C672.422 480.443 671.526 481.339 671.526 482.443C671.526 483.548 672.422 484.443 673.526 484.443ZM689.526 484.443C690.631 484.443 691.526 483.548 691.526 482.443C691.526 481.339 690.631 480.443 689.526 480.443C688.422 480.443 687.526 481.339 687.526 482.443C687.526 483.548 688.422 484.443 689.526 484.443ZM707.526 482.443C707.526 483.548 706.631 484.443 705.526 484.443C704.422 484.443 703.526 483.548 703.526 482.443C703.526 481.339 704.422 480.443 705.526 480.443C706.631 480.443 707.526 481.339 707.526 482.443ZM721.526 484.443C722.631 484.443 723.526 483.548 723.526 482.443C723.526 481.339 722.631 480.443 721.526 480.443C720.422 480.443 719.526 481.339 719.526 482.443C719.526 483.548 720.422 484.443 721.526 484.443ZM739.526 482.443C739.526 483.548 738.631 484.443 737.526 484.443C736.422 484.443 735.526 483.548 735.526 482.443C735.526 481.339 736.422 480.443 737.526 480.443C738.631 480.443 739.526 481.339 739.526 482.443ZM753.526 484.443C754.631 484.443 755.526 483.548 755.526 482.443C755.526 481.339 754.631 480.443 753.526 480.443C752.422 480.443 751.526 481.339 751.526 482.443C751.526 483.548 752.422 484.443 753.526 484.443ZM673.526 468.443C674.631 468.443 675.526 467.548 675.526 466.443C675.526 465.339 674.631 464.443 673.526 464.443C672.422 464.443 671.526 465.339 671.526 466.443C671.526 467.548 672.422 468.443 673.526 468.443ZM683.526 498.443C683.526 499.548 682.631 500.443 681.526 500.443C680.422 500.443 679.526 499.548 679.526 498.443C679.526 497.339 680.422 496.443 681.526 496.443C682.631 496.443 683.526 497.339 683.526 498.443ZM681.526 516.443C682.631 516.443 683.526 515.548 683.526 514.443C683.526 513.339 682.631 512.443 681.526 512.443C680.422 512.443 679.526 513.339 679.526 514.443C679.526 515.548 680.422 516.443 681.526 516.443ZM697.526 516.443C698.631 516.443 699.526 515.548 699.526 514.443C699.526 513.339 698.631 512.443 697.526 512.443C696.422 512.443 695.526 513.339 695.526 514.443C695.526 515.548 696.422 516.443 697.526 516.443ZM715.526 514.443C715.526 515.548 714.631 516.443 713.526 516.443C712.422 516.443 711.526 515.548 711.526 514.443C711.526 513.339 712.422 512.443 713.526 512.443C714.631 512.443 715.526 513.339 715.526 514.443ZM729.526 516.443C730.631 516.443 731.526 515.548 731.526 514.443C731.526 513.339 730.631 512.443 729.526 512.443C728.422 512.443 727.526 513.339 727.526 514.443C727.526 515.548 728.422 516.443 729.526 516.443ZM747.526 514.443C747.526 515.548 746.631 516.443 745.526 516.443C744.422 516.443 743.526 515.548 743.526 514.443C743.526 513.339 744.422 512.443 745.526 512.443C746.631 512.443 747.526 513.339 747.526 514.443ZM761.526 516.443C762.631 516.443 763.526 515.548 763.526 514.443C763.526 513.339 762.631 512.443 761.526 512.443C760.422 512.443 759.526 513.339 759.526 514.443C759.526 515.548 760.422 516.443 761.526 516.443ZM697.526 500.443C698.631 500.443 699.526 499.548 699.526 498.443C699.526 497.339 698.631 496.443 697.526 496.443C696.422 496.443 695.526 497.339 695.526 498.443C695.526 499.548 696.422 500.443 697.526 500.443ZM715.526 498.443C715.526 499.548 714.631 500.443 713.526 500.443C712.422 500.443 711.526 499.548 711.526 498.443C711.526 497.339 712.422 496.443 713.526 496.443C714.631 496.443 715.526 497.339 715.526 498.443ZM729.526 500.443C730.631 500.443 731.526 499.548 731.526 498.443C731.526 497.339 730.631 496.443 729.526 496.443C728.422 496.443 727.526 497.339 727.526 498.443C727.526 499.548 728.422 500.443 729.526 500.443ZM747.526 498.443C747.526 499.548 746.631 500.443 745.526 500.443C744.422 500.443 743.526 499.548 743.526 498.443C743.526 497.339 744.422 496.443 745.526 496.443C746.631 496.443 747.526 497.339 747.526 498.443ZM761.526 500.443C762.631 500.443 763.526 499.548 763.526 498.443C763.526 497.339 762.631 496.443 761.526 496.443C760.422 496.443 759.526 497.339 759.526 498.443C759.526 499.548 760.422 500.443 761.526 500.443ZM689.526 468.443C690.631 468.443 691.526 467.548 691.526 466.443C691.526 465.339 690.631 464.443 689.526 464.443C688.422 464.443 687.526 465.339 687.526 466.443C687.526 467.548 688.422 468.443 689.526 468.443ZM779.526 498.443C779.526 499.548 778.631 500.443 777.526 500.443C776.422 500.443 775.526 499.548 775.526 498.443C775.526 497.339 776.422 496.443 777.526 496.443C778.631 496.443 779.526 497.339 779.526 498.443ZM777.526 516.443C778.631 516.443 779.526 515.548 779.526 514.443C779.526 513.339 778.631 512.443 777.526 512.443C776.422 512.443 775.526 513.339 775.526 514.443C775.526 515.548 776.422 516.443 777.526 516.443ZM793.526 516.443C794.631 516.443 795.526 515.548 795.526 514.443C795.526 513.339 794.631 512.443 793.526 512.443C792.422 512.443 791.526 513.339 791.526 514.443C791.526 515.548 792.422 516.443 793.526 516.443ZM811.526 514.443C811.526 515.548 810.631 516.443 809.526 516.443C808.422 516.443 807.526 515.548 807.526 514.443C807.526 513.339 808.422 512.443 809.526 512.443C810.631 512.443 811.526 513.339 811.526 514.443ZM825.526 516.443C826.631 516.443 827.526 515.548 827.526 514.443C827.526 513.339 826.631 512.443 825.526 512.443C824.422 512.443 823.526 513.339 823.526 514.443C823.526 515.548 824.422 516.443 825.526 516.443ZM843.526 514.443C843.526 515.548 842.631 516.443 841.526 516.443C840.422 516.443 839.526 515.548 839.526 514.443C839.526 513.339 840.422 512.443 841.526 512.443C842.631 512.443 843.526 513.339 843.526 514.443ZM857.526 516.443C858.631 516.443 859.526 515.548 859.526 514.443C859.526 513.339 858.631 512.443 857.526 512.443C856.422 512.443 855.526 513.339 855.526 514.443C855.526 515.548 856.422 516.443 857.526 516.443ZM793.526 500.443C794.631 500.443 795.526 499.548 795.526 498.443C795.526 497.339 794.631 496.443 793.526 496.443C792.422 496.443 791.526 497.339 791.526 498.443C791.526 499.548 792.422 500.443 793.526 500.443ZM811.526 498.443C811.526 499.548 810.631 500.443 809.526 500.443C808.422 500.443 807.526 499.548 807.526 498.443C807.526 497.339 808.422 496.443 809.526 496.443C810.631 496.443 811.526 497.339 811.526 498.443ZM825.526 500.443C826.631 500.443 827.526 499.548 827.526 498.443C827.526 497.339 826.631 496.443 825.526 496.443C824.422 496.443 823.526 497.339 823.526 498.443C823.526 499.548 824.422 500.443 825.526 500.443ZM843.526 498.443C843.526 499.548 842.631 500.443 841.526 500.443C840.422 500.443 839.526 499.548 839.526 498.443C839.526 497.339 840.422 496.443 841.526 496.443C842.631 496.443 843.526 497.339 843.526 498.443ZM857.526 500.443C858.631 500.443 859.526 499.548 859.526 498.443C859.526 497.339 858.631 496.443 857.526 496.443C856.422 496.443 855.526 497.339 855.526 498.443C855.526 499.548 856.422 500.443 857.526 500.443ZM705.526 468.443C706.631 468.443 707.526 467.548 707.526 466.443C707.526 465.339 706.631 464.443 705.526 464.443C704.422 464.443 703.526 465.339 703.526 466.443C703.526 467.548 704.422 468.443 705.526 468.443ZM723.526 466.443C723.526 467.548 722.631 468.443 721.526 468.443C720.422 468.443 719.526 467.548 719.526 466.443C719.526 465.339 720.422 464.443 721.526 464.443C722.631 464.443 723.526 465.339 723.526 466.443ZM737.526 468.443C738.631 468.443 739.526 467.548 739.526 466.443C739.526 465.339 738.631 464.443 737.526 464.443C736.422 464.443 735.526 465.339 735.526 466.443C735.526 467.548 736.422 468.443 737.526 468.443ZM755.526 466.443C755.526 467.548 754.631 468.443 753.526 468.443C752.422 468.443 751.526 467.548 751.526 466.443C751.526 465.339 752.422 464.443 753.526 464.443C754.631 464.443 755.526 465.339 755.526 466.443Z" fill="white"/>
</g>
</g>
<path d="M285 202.5C285 211.06 278.06 218 269.5 218C260.94 218 254 211.06 254 202.5C254 193.94 260.94 187 269.5 187C278.06 187 285 193.94 285 202.5Z" stroke="#F07867" stroke-width="4"/>
<path d="M1016 351C1020.97 351 1025 346.971 1025 342C1025 337.029 1020.97 333 1016 333C1011.03 333 1007 337.029 1007 342C1007 346.971 1011.03 351 1016 351Z" fill="#FACE55"/>
<path d="M1197 98.4019C1196.07 97.866 1194.93 97.866 1194 98.4019L1176.25 108.652C1175.32 109.188 1174.75 110.178 1174.75 111.25V131.75C1174.75 132.822 1175.32 133.812 1176.25 134.348L1194 144.598C1194.93 145.134 1196.07 145.134 1197 144.598L1214.75 134.348C1215.68 133.812 1216.25 132.822 1216.25 131.75V111.25C1216.25 110.178 1215.68 109.188 1214.75 108.652L1197 98.4019Z" stroke="#79E6F8" stroke-width="6" stroke-linejoin="round"/>
</g>
<defs>
<clipPath id="clip0_1_989">
<rect width="1440" height="496" fill="white"/>
</clipPath>
<clipPath id="clip1_1_989">
<rect width="74" height="103" fill="white" transform="translate(989)"/>
</clipPath>
</defs>
</svg>
