<svg width="192" height="244" viewBox="0 0 192 244" fill="none" xmlns="http://www.w3.org/2000/svg">
<mask id="mask0_1_369" style="mask-type: alpha" maskUnits="userSpaceOnUse" x="-52" y="0" width="244" height="244">
<path d="M70 244C137.379 244 192 189.379 192 122C192 54.6213 137.379 0 70 0C2.62126 0 -52 54.6213 -52 122C-52 189.379 2.62126 244 70 244Z" fill="white"></path>
</mask>
<g mask="url('#mask0_1_369')">
<path fill-rule="evenodd" clip-rule="evenodd" d="M112.526 -5.55695C112.526 -4.45238 111.631 -3.55695 110.526 -3.55695C109.422 -3.55695 108.526 -4.45238 108.526 -5.55695C108.526 -6.66152 109.422 -7.55695 110.526 -7.55695C111.631 -7.55695 112.526 -6.66152 112.526 -5.55695ZM110.526 12.4431C111.631 12.4431 112.526 11.5476 112.526 10.4431C112.526 9.33848 111.631 8.44305 110.526 8.44305C109.422 8.44305 108.526 9.33848 108.526 10.4431C108.526 11.5476 109.422 12.4431 110.526 12.4431ZM126.526 12.4431C127.631 12.4431 128.526 11.5476 128.526 10.4431C128.526 9.33848 127.631 8.44305 126.526 8.44305C125.422 8.44305 124.526 9.33848 124.526 10.4431C124.526 11.5476 125.422 12.4431 126.526 12.4431ZM144.526 10.4431C144.526 11.5476 143.631 12.4431 142.526 12.4431C141.422 12.4431 140.526 11.5476 140.526 10.4431C140.526 9.33848 141.422 8.44305 142.526 8.44305C143.631 8.44305 144.526 9.33848 144.526 10.4431ZM158.526 12.4431C159.631 12.4431 160.526 11.5476 160.526 10.4431C160.526 9.33848 159.631 8.44305 158.526 8.44305C157.422 8.44305 156.526 9.33848 156.526 10.4431C156.526 11.5476 157.422 12.4431 158.526 12.4431ZM176.526 10.4431C176.526 11.5476 175.631 12.4431 174.526 12.4431C173.422 12.4431 172.526 11.5476 172.526 10.4431C172.526 9.33848 173.422 8.44305 174.526 8.44305C175.631 8.44305 176.526 9.33848 176.526 10.4431ZM190.526 12.4431C191.631 12.4431 192.526 11.5476 192.526 10.4431C192.526 9.33848 191.631 8.44305 190.526 8.44305C189.422 8.44305 188.526 9.33848 188.526 10.4431C188.526 11.5476 189.422 12.4431 190.526 12.4431ZM126.526 -3.55695C127.631 -3.55695 128.526 -4.45238 128.526 -5.55695C128.526 -6.66152 127.631 -7.55695 126.526 -7.55695C125.422 -7.55695 124.526 -6.66152 124.526 -5.55695C124.526 -4.45238 125.422 -3.55695 126.526 -3.55695ZM144.526 -5.55695C144.526 -4.45238 143.631 -3.55695 142.526 -3.55695C141.422 -3.55695 140.526 -4.45238 140.526 -5.55695C140.526 -6.66152 141.422 -7.55695 142.526 -7.55695C143.631 -7.55695 144.526 -6.66152 144.526 -5.55695ZM158.526 -3.55695C159.631 -3.55695 160.526 -4.45238 160.526 -5.55695C160.526 -6.66152 159.631 -7.55695 158.526 -7.55695C157.422 -7.55695 156.526 -6.66152 156.526 -5.55695C156.526 -4.45238 157.422 -3.55695 158.526 -3.55695ZM176.526 -5.55695C176.526 -4.45238 175.631 -3.55695 174.526 -3.55695C173.422 -3.55695 172.526 -4.45238 172.526 -5.55695C172.526 -6.66152 173.422 -7.55695 174.526 -7.55695C175.631 -7.55695 176.526 -6.66152 176.526 -5.55695ZM190.526 -3.55695C191.631 -3.55695 192.526 -4.45238 192.526 -5.55695C192.526 -6.66152 191.631 -7.55695 190.526 -7.55695C189.422 -7.55695 188.526 -6.66152 188.526 -5.55695C188.526 -4.45238 189.422 -3.55695 190.526 -3.55695ZM6.52631 12.4431C7.63087 12.4431 8.52631 11.5476 8.52631 10.4431C8.52631 9.33848 7.63087 8.44305 6.52631 8.44305C5.42174 8.44305 4.52631 9.33848 4.52631 10.4431C4.52631 11.5476 5.42174 12.4431 6.52631 12.4431ZM22.5263 12.4431C23.6309 12.4431 24.5263 11.5476 24.5263 10.4431C24.5263 9.33848 23.6309 8.44305 22.5263 8.44305C21.4217 8.44305 20.5263 9.33848 20.5263 10.4431C20.5263 11.5476 21.4217 12.4431 22.5263 12.4431ZM40.5263 10.4431C40.5263 11.5476 39.6309 12.4431 38.5263 12.4431C37.4217 12.4431 36.5263 11.5476 36.5263 10.4431C36.5263 9.33848 37.4217 8.44305 38.5263 8.44305C39.6309 8.44305 40.5263 9.33848 40.5263 10.4431ZM54.5263 12.4431C55.6309 12.4431 56.5263 11.5476 56.5263 10.4431C56.5263 9.33848 55.6309 8.44305 54.5263 8.44305C53.4217 8.44305 52.5263 9.33848 52.5263 10.4431C52.5263 11.5476 53.4217 12.4431 54.5263 12.4431ZM72.5263 10.4431C72.5263 11.5476 71.6309 12.4431 70.5263 12.4431C69.4217 12.4431 68.5263 11.5476 68.5263 10.4431C68.5263 9.33848 69.4217 8.44305 70.5263 8.44305C71.6309 8.44305 72.5263 9.33848 72.5263 10.4431ZM86.5263 12.4431C87.6309 12.4431 88.5263 11.5476 88.5263 10.4431C88.5263 9.33848 87.6309 8.44305 86.5263 8.44305C85.4217 8.44305 84.5263 9.33848 84.5263 10.4431C84.5263 11.5476 85.4217 12.4431 86.5263 12.4431ZM6.52631 -3.55695C7.63088 -3.55695 8.52631 -4.45238 8.52631 -5.55695C8.52631 -6.66152 7.63088 -7.55695 6.52631 -7.55695C5.42174 -7.55695 4.52631 -6.66152 4.52631 -5.55695C4.52631 -4.45238 5.42174 -3.55695 6.52631 -3.55695ZM16.5263 26.4431C16.5263 27.5476 15.6309 28.4431 14.5263 28.4431C13.4217 28.4431 12.5263 27.5476 12.5263 26.4431C12.5263 25.3385 13.4217 24.4431 14.5263 24.4431C15.6309 24.4431 16.5263 25.3385 16.5263 26.4431ZM14.5263 44.4431C15.6309 44.4431 16.5263 43.5476 16.5263 42.4431C16.5263 41.3385 15.6309 40.4431 14.5263 40.4431C13.4217 40.4431 12.5263 41.3385 12.5263 42.4431C12.5263 43.5476 13.4217 44.4431 14.5263 44.4431ZM30.5263 44.4431C31.6309 44.4431 32.5263 43.5476 32.5263 42.4431C32.5263 41.3385 31.6309 40.4431 30.5263 40.4431C29.4217 40.4431 28.5263 41.3385 28.5263 42.4431C28.5263 43.5476 29.4217 44.4431 30.5263 44.4431ZM48.5263 42.4431C48.5263 43.5476 47.6309 44.4431 46.5263 44.4431C45.4217 44.4431 44.5263 43.5476 44.5263 42.4431C44.5263 41.3385 45.4217 40.4431 46.5263 40.4431C47.6309 40.4431 48.5263 41.3385 48.5263 42.4431ZM62.5263 44.4431C63.6309 44.4431 64.5263 43.5476 64.5263 42.4431C64.5263 41.3385 63.6309 40.4431 62.5263 40.4431C61.4217 40.4431 60.5263 41.3385 60.5263 42.4431C60.5263 43.5476 61.4217 44.4431 62.5263 44.4431ZM80.5263 42.4431C80.5263 43.5476 79.6309 44.4431 78.5263 44.4431C77.4217 44.4431 76.5263 43.5476 76.5263 42.4431C76.5263 41.3385 77.4217 40.4431 78.5263 40.4431C79.6309 40.4431 80.5263 41.3385 80.5263 42.4431ZM94.5263 44.4431C95.6309 44.4431 96.5263 43.5476 96.5263 42.4431C96.5263 41.3385 95.6309 40.4431 94.5263 40.4431C93.4217 40.4431 92.5263 41.3385 92.5263 42.4431C92.5263 43.5476 93.4217 44.4431 94.5263 44.4431ZM30.5263 28.4431C31.6309 28.4431 32.5263 27.5476 32.5263 26.4431C32.5263 25.3385 31.6309 24.4431 30.5263 24.4431C29.4217 24.4431 28.5263 25.3385 28.5263 26.4431C28.5263 27.5476 29.4217 28.4431 30.5263 28.4431ZM48.5263 26.4431C48.5263 27.5476 47.6309 28.4431 46.5263 28.4431C45.4217 28.4431 44.5263 27.5476 44.5263 26.4431C44.5263 25.3385 45.4217 24.4431 46.5263 24.4431C47.6309 24.4431 48.5263 25.3385 48.5263 26.4431ZM62.5263 28.4431C63.6309 28.4431 64.5263 27.5476 64.5263 26.4431C64.5263 25.3385 63.6309 24.4431 62.5263 24.4431C61.4217 24.4431 60.5263 25.3385 60.5263 26.4431C60.5263 27.5476 61.4217 28.4431 62.5263 28.4431ZM80.5263 26.4431C80.5263 27.5476 79.6309 28.4431 78.5263 28.4431C77.4217 28.4431 76.5263 27.5476 76.5263 26.4431C76.5263 25.3385 77.4217 24.4431 78.5263 24.4431C79.6309 24.4431 80.5263 25.3385 80.5263 26.4431ZM94.5263 28.4431C95.6309 28.4431 96.5263 27.5476 96.5263 26.4431C96.5263 25.3385 95.6309 24.4431 94.5263 24.4431C93.4217 24.4431 92.5263 25.3385 92.5263 26.4431C92.5263 27.5476 93.4217 28.4431 94.5263 28.4431ZM22.5263 -3.55695C23.6309 -3.55695 24.5263 -4.45238 24.5263 -5.55695C24.5263 -6.66152 23.6309 -7.55695 22.5263 -7.55695C21.4217 -7.55695 20.5263 -6.66152 20.5263 -5.55695C20.5263 -4.45238 21.4217 -3.55695 22.5263 -3.55695ZM112.526 26.4431C112.526 27.5476 111.631 28.4431 110.526 28.4431C109.422 28.4431 108.526 27.5476 108.526 26.4431C108.526 25.3385 109.422 24.4431 110.526 24.4431C111.631 24.4431 112.526 25.3385 112.526 26.4431ZM110.526 44.4431C111.631 44.4431 112.526 43.5476 112.526 42.4431C112.526 41.3385 111.631 40.4431 110.526 40.4431C109.422 40.4431 108.526 41.3385 108.526 42.4431C108.526 43.5476 109.422 44.4431 110.526 44.4431ZM126.526 44.4431C127.631 44.4431 128.526 43.5476 128.526 42.4431C128.526 41.3385 127.631 40.4431 126.526 40.4431C125.422 40.4431 124.526 41.3385 124.526 42.4431C124.526 43.5476 125.422 44.4431 126.526 44.4431ZM144.526 42.4431C144.526 43.5476 143.631 44.4431 142.526 44.4431C141.422 44.4431 140.526 43.5476 140.526 42.4431C140.526 41.3385 141.422 40.4431 142.526 40.4431C143.631 40.4431 144.526 41.3385 144.526 42.4431ZM158.526 44.4431C159.631 44.4431 160.526 43.5476 160.526 42.4431C160.526 41.3385 159.631 40.4431 158.526 40.4431C157.422 40.4431 156.526 41.3385 156.526 42.4431C156.526 43.5476 157.422 44.4431 158.526 44.4431ZM176.526 42.4431C176.526 43.5476 175.631 44.4431 174.526 44.4431C173.422 44.4431 172.526 43.5476 172.526 42.4431C172.526 41.3385 173.422 40.4431 174.526 40.4431C175.631 40.4431 176.526 41.3385 176.526 42.4431ZM190.526 44.4431C191.631 44.4431 192.526 43.5476 192.526 42.4431C192.526 41.3385 191.631 40.4431 190.526 40.4431C189.422 40.4431 188.526 41.3385 188.526 42.4431C188.526 43.5476 189.422 44.4431 190.526 44.4431ZM126.526 28.4431C127.631 28.4431 128.526 27.5476 128.526 26.4431C128.526 25.3385 127.631 24.4431 126.526 24.4431C125.422 24.4431 124.526 25.3385 124.526 26.4431C124.526 27.5476 125.422 28.4431 126.526 28.4431ZM144.526 26.4431C144.526 27.5476 143.631 28.4431 142.526 28.4431C141.422 28.4431 140.526 27.5476 140.526 26.4431C140.526 25.3385 141.422 24.4431 142.526 24.4431C143.631 24.4431 144.526 25.3385 144.526 26.4431ZM158.526 28.4431C159.631 28.4431 160.526 27.5476 160.526 26.4431C160.526 25.3385 159.631 24.4431 158.526 24.4431C157.422 24.4431 156.526 25.3385 156.526 26.4431C156.526 27.5476 157.422 28.4431 158.526 28.4431ZM176.526 26.4431C176.526 27.5476 175.631 28.4431 174.526 28.4431C173.422 28.4431 172.526 27.5476 172.526 26.4431C172.526 25.3385 173.422 24.4431 174.526 24.4431C175.631 24.4431 176.526 25.3385 176.526 26.4431ZM190.526 28.4431C191.631 28.4431 192.526 27.5476 192.526 26.4431C192.526 25.3385 191.631 24.4431 190.526 24.4431C189.422 24.4431 188.526 25.3385 188.526 26.4431C188.526 27.5476 189.422 28.4431 190.526 28.4431ZM38.5263 -3.55695C39.6309 -3.55695 40.5263 -4.45238 40.5263 -5.55695C40.5263 -6.66152 39.6309 -7.55695 38.5263 -7.55695C37.4217 -7.55695 36.5263 -6.66152 36.5263 -5.55695C36.5263 -4.45238 37.4217 -3.55695 38.5263 -3.55695ZM56.5263 -5.55695C56.5263 -4.45238 55.6309 -3.55695 54.5263 -3.55695C53.4217 -3.55695 52.5263 -4.45238 52.5263 -5.55695C52.5263 -6.66152 53.4217 -7.55695 54.5263 -7.55695C55.6309 -7.55695 56.5263 -6.66152 56.5263 -5.55695ZM70.5263 -3.55695C71.6309 -3.55695 72.5263 -4.45238 72.5263 -5.55695C72.5263 -6.66152 71.6309 -7.55695 70.5263 -7.55695C69.4217 -7.55695 68.5263 -6.66152 68.5263 -5.55695C68.5263 -4.45238 69.4217 -3.55695 70.5263 -3.55695ZM88.5263 -5.55695C88.5263 -4.45238 87.6309 -3.55695 86.5263 -3.55695C85.4217 -3.55695 84.5263 -4.45238 84.5263 -5.55695C84.5263 -6.66152 85.4217 -7.55695 86.5263 -7.55695C87.6309 -7.55695 88.5263 -6.66152 88.5263 -5.55695Z" fill="#333333"></path>
<path fill-rule="evenodd" clip-rule="evenodd" d="M112.526 58.4431C112.526 59.5476 111.631 60.4431 110.526 60.4431C109.422 60.4431 108.526 59.5476 108.526 58.4431C108.526 57.3385 109.422 56.4431 110.526 56.4431C111.631 56.4431 112.526 57.3385 112.526 58.4431ZM110.526 76.4431C111.631 76.4431 112.526 75.5476 112.526 74.4431C112.526 73.3385 111.631 72.4431 110.526 72.4431C109.422 72.4431 108.526 73.3385 108.526 74.4431C108.526 75.5476 109.422 76.4431 110.526 76.4431ZM126.526 76.4431C127.631 76.4431 128.526 75.5476 128.526 74.4431C128.526 73.3385 127.631 72.4431 126.526 72.4431C125.422 72.4431 124.526 73.3385 124.526 74.4431C124.526 75.5476 125.422 76.4431 126.526 76.4431ZM144.526 74.4431C144.526 75.5476 143.631 76.4431 142.526 76.4431C141.422 76.4431 140.526 75.5476 140.526 74.4431C140.526 73.3385 141.422 72.4431 142.526 72.4431C143.631 72.4431 144.526 73.3385 144.526 74.4431ZM158.526 76.4431C159.631 76.4431 160.526 75.5476 160.526 74.4431C160.526 73.3385 159.631 72.4431 158.526 72.4431C157.422 72.4431 156.526 73.3385 156.526 74.4431C156.526 75.5476 157.422 76.4431 158.526 76.4431ZM176.526 74.4431C176.526 75.5476 175.631 76.4431 174.526 76.4431C173.422 76.4431 172.526 75.5476 172.526 74.4431C172.526 73.3385 173.422 72.4431 174.526 72.4431C175.631 72.4431 176.526 73.3385 176.526 74.4431ZM190.526 76.4431C191.631 76.4431 192.526 75.5476 192.526 74.4431C192.526 73.3385 191.631 72.4431 190.526 72.4431C189.422 72.4431 188.526 73.3385 188.526 74.4431C188.526 75.5476 189.422 76.4431 190.526 76.4431ZM126.526 60.4431C127.631 60.4431 128.526 59.5476 128.526 58.4431C128.526 57.3385 127.631 56.4431 126.526 56.4431C125.422 56.4431 124.526 57.3385 124.526 58.4431C124.526 59.5476 125.422 60.4431 126.526 60.4431ZM144.526 58.4431C144.526 59.5476 143.631 60.4431 142.526 60.4431C141.422 60.4431 140.526 59.5476 140.526 58.4431C140.526 57.3385 141.422 56.4431 142.526 56.4431C143.631 56.4431 144.526 57.3385 144.526 58.4431ZM158.526 60.4431C159.631 60.4431 160.526 59.5476 160.526 58.4431C160.526 57.3385 159.631 56.4431 158.526 56.4431C157.422 56.4431 156.526 57.3385 156.526 58.4431C156.526 59.5476 157.422 60.4431 158.526 60.4431ZM176.526 58.4431C176.526 59.5476 175.631 60.4431 174.526 60.4431C173.422 60.4431 172.526 59.5476 172.526 58.4431C172.526 57.3385 173.422 56.4431 174.526 56.4431C175.631 56.4431 176.526 57.3385 176.526 58.4431ZM190.526 60.4431C191.631 60.4431 192.526 59.5476 192.526 58.4431C192.526 57.3385 191.631 56.4431 190.526 56.4431C189.422 56.4431 188.526 57.3385 188.526 58.4431C188.526 59.5476 189.422 60.4431 190.526 60.4431ZM6.52631 76.4431C7.63087 76.4431 8.52631 75.5476 8.52631 74.4431C8.52631 73.3385 7.63087 72.4431 6.52631 72.4431C5.42174 72.4431 4.52631 73.3385 4.52631 74.4431C4.52631 75.5476 5.42174 76.4431 6.52631 76.4431ZM22.5263 76.4431C23.6309 76.4431 24.5263 75.5476 24.5263 74.4431C24.5263 73.3385 23.6309 72.4431 22.5263 72.4431C21.4217 72.4431 20.5263 73.3385 20.5263 74.4431C20.5263 75.5476 21.4217 76.4431 22.5263 76.4431ZM40.5263 74.4431C40.5263 75.5476 39.6309 76.4431 38.5263 76.4431C37.4217 76.4431 36.5263 75.5476 36.5263 74.4431C36.5263 73.3385 37.4217 72.4431 38.5263 72.4431C39.6309 72.4431 40.5263 73.3385 40.5263 74.4431ZM54.5263 76.4431C55.6309 76.4431 56.5263 75.5476 56.5263 74.4431C56.5263 73.3385 55.6309 72.4431 54.5263 72.4431C53.4217 72.4431 52.5263 73.3385 52.5263 74.4431C52.5263 75.5476 53.4217 76.4431 54.5263 76.4431ZM72.5263 74.4431C72.5263 75.5476 71.6309 76.4431 70.5263 76.4431C69.4217 76.4431 68.5263 75.5476 68.5263 74.4431C68.5263 73.3385 69.4217 72.4431 70.5263 72.4431C71.6309 72.4431 72.5263 73.3385 72.5263 74.4431ZM86.5263 76.4431C87.6309 76.4431 88.5263 75.5476 88.5263 74.4431C88.5263 73.3385 87.6309 72.4431 86.5263 72.4431C85.4217 72.4431 84.5263 73.3385 84.5263 74.4431C84.5263 75.5476 85.4217 76.4431 86.5263 76.4431ZM6.52631 60.4431C7.63088 60.4431 8.52631 59.5476 8.52631 58.4431C8.52631 57.3385 7.63088 56.4431 6.52631 56.4431C5.42174 56.4431 4.52631 57.3385 4.52631 58.4431C4.52631 59.5476 5.42174 60.4431 6.52631 60.4431ZM16.5263 90.4431C16.5263 91.5476 15.6309 92.4431 14.5263 92.4431C13.4217 92.4431 12.5263 91.5476 12.5263 90.4431C12.5263 89.3385 13.4217 88.4431 14.5263 88.4431C15.6309 88.4431 16.5263 89.3385 16.5263 90.4431ZM14.5263 108.443C15.6309 108.443 16.5263 107.548 16.5263 106.443C16.5263 105.338 15.6309 104.443 14.5263 104.443C13.4217 104.443 12.5263 105.338 12.5263 106.443C12.5263 107.548 13.4217 108.443 14.5263 108.443ZM30.5263 108.443C31.6309 108.443 32.5263 107.548 32.5263 106.443C32.5263 105.338 31.6309 104.443 30.5263 104.443C29.4217 104.443 28.5263 105.338 28.5263 106.443C28.5263 107.548 29.4217 108.443 30.5263 108.443ZM48.5263 106.443C48.5263 107.548 47.6309 108.443 46.5263 108.443C45.4217 108.443 44.5263 107.548 44.5263 106.443C44.5263 105.338 45.4217 104.443 46.5263 104.443C47.6309 104.443 48.5263 105.338 48.5263 106.443ZM62.5263 108.443C63.6309 108.443 64.5263 107.548 64.5263 106.443C64.5263 105.338 63.6309 104.443 62.5263 104.443C61.4217 104.443 60.5263 105.338 60.5263 106.443C60.5263 107.548 61.4217 108.443 62.5263 108.443ZM80.5263 106.443C80.5263 107.548 79.6309 108.443 78.5263 108.443C77.4217 108.443 76.5263 107.548 76.5263 106.443C76.5263 105.338 77.4217 104.443 78.5263 104.443C79.6309 104.443 80.5263 105.338 80.5263 106.443ZM94.5263 108.443C95.6309 108.443 96.5263 107.548 96.5263 106.443C96.5263 105.338 95.6309 104.443 94.5263 104.443C93.4217 104.443 92.5263 105.338 92.5263 106.443C92.5263 107.548 93.4217 108.443 94.5263 108.443ZM30.5263 92.4431C31.6309 92.4431 32.5263 91.5476 32.5263 90.4431C32.5263 89.3385 31.6309 88.4431 30.5263 88.4431C29.4217 88.4431 28.5263 89.3385 28.5263 90.4431C28.5263 91.5476 29.4217 92.4431 30.5263 92.4431ZM48.5263 90.4431C48.5263 91.5476 47.6309 92.4431 46.5263 92.4431C45.4217 92.4431 44.5263 91.5476 44.5263 90.4431C44.5263 89.3385 45.4217 88.4431 46.5263 88.4431C47.6309 88.4431 48.5263 89.3385 48.5263 90.4431ZM62.5263 92.4431C63.6309 92.4431 64.5263 91.5476 64.5263 90.4431C64.5263 89.3385 63.6309 88.4431 62.5263 88.4431C61.4217 88.4431 60.5263 89.3385 60.5263 90.4431C60.5263 91.5476 61.4217 92.4431 62.5263 92.4431ZM80.5263 90.4431C80.5263 91.5476 79.6309 92.4431 78.5263 92.4431C77.4217 92.4431 76.5263 91.5476 76.5263 90.4431C76.5263 89.3385 77.4217 88.4431 78.5263 88.4431C79.6309 88.4431 80.5263 89.3385 80.5263 90.4431ZM94.5263 92.4431C95.6309 92.4431 96.5263 91.5476 96.5263 90.4431C96.5263 89.3385 95.6309 88.4431 94.5263 88.4431C93.4217 88.4431 92.5263 89.3385 92.5263 90.4431C92.5263 91.5476 93.4217 92.4431 94.5263 92.4431ZM22.5263 60.4431C23.6309 60.4431 24.5263 59.5476 24.5263 58.4431C24.5263 57.3385 23.6309 56.4431 22.5263 56.4431C21.4217 56.4431 20.5263 57.3385 20.5263 58.4431C20.5263 59.5476 21.4217 60.4431 22.5263 60.4431ZM112.526 90.4431C112.526 91.5476 111.631 92.4431 110.526 92.4431C109.422 92.4431 108.526 91.5476 108.526 90.4431C108.526 89.3385 109.422 88.4431 110.526 88.4431C111.631 88.4431 112.526 89.3385 112.526 90.4431ZM110.526 108.443C111.631 108.443 112.526 107.548 112.526 106.443C112.526 105.338 111.631 104.443 110.526 104.443C109.422 104.443 108.526 105.338 108.526 106.443C108.526 107.548 109.422 108.443 110.526 108.443ZM126.526 108.443C127.631 108.443 128.526 107.548 128.526 106.443C128.526 105.338 127.631 104.443 126.526 104.443C125.422 104.443 124.526 105.338 124.526 106.443C124.526 107.548 125.422 108.443 126.526 108.443ZM144.526 106.443C144.526 107.548 143.631 108.443 142.526 108.443C141.422 108.443 140.526 107.548 140.526 106.443C140.526 105.338 141.422 104.443 142.526 104.443C143.631 104.443 144.526 105.338 144.526 106.443ZM158.526 108.443C159.631 108.443 160.526 107.548 160.526 106.443C160.526 105.338 159.631 104.443 158.526 104.443C157.422 104.443 156.526 105.338 156.526 106.443C156.526 107.548 157.422 108.443 158.526 108.443ZM176.526 106.443C176.526 107.548 175.631 108.443 174.526 108.443C173.422 108.443 172.526 107.548 172.526 106.443C172.526 105.338 173.422 104.443 174.526 104.443C175.631 104.443 176.526 105.338 176.526 106.443ZM190.526 108.443C191.631 108.443 192.526 107.548 192.526 106.443C192.526 105.338 191.631 104.443 190.526 104.443C189.422 104.443 188.526 105.338 188.526 106.443C188.526 107.548 189.422 108.443 190.526 108.443ZM126.526 92.4431C127.631 92.4431 128.526 91.5476 128.526 90.4431C128.526 89.3385 127.631 88.4431 126.526 88.4431C125.422 88.4431 124.526 89.3385 124.526 90.4431C124.526 91.5476 125.422 92.4431 126.526 92.4431ZM144.526 90.4431C144.526 91.5476 143.631 92.4431 142.526 92.4431C141.422 92.4431 140.526 91.5476 140.526 90.4431C140.526 89.3385 141.422 88.4431 142.526 88.4431C143.631 88.4431 144.526 89.3385 144.526 90.4431ZM158.526 92.4431C159.631 92.4431 160.526 91.5476 160.526 90.4431C160.526 89.3385 159.631 88.4431 158.526 88.4431C157.422 88.4431 156.526 89.3385 156.526 90.4431C156.526 91.5476 157.422 92.4431 158.526 92.4431ZM176.526 90.4431C176.526 91.5476 175.631 92.4431 174.526 92.4431C173.422 92.4431 172.526 91.5476 172.526 90.4431C172.526 89.3385 173.422 88.4431 174.526 88.4431C175.631 88.4431 176.526 89.3385 176.526 90.4431ZM190.526 92.4431C191.631 92.4431 192.526 91.5476 192.526 90.4431C192.526 89.3385 191.631 88.4431 190.526 88.4431C189.422 88.4431 188.526 89.3385 188.526 90.4431C188.526 91.5476 189.422 92.4431 190.526 92.4431ZM38.5263 60.4431C39.6309 60.4431 40.5263 59.5476 40.5263 58.4431C40.5263 57.3385 39.6309 56.4431 38.5263 56.4431C37.4217 56.4431 36.5263 57.3385 36.5263 58.4431C36.5263 59.5476 37.4217 60.4431 38.5263 60.4431ZM56.5263 58.4431C56.5263 59.5476 55.6309 60.4431 54.5263 60.4431C53.4217 60.4431 52.5263 59.5476 52.5263 58.4431C52.5263 57.3385 53.4217 56.4431 54.5263 56.4431C55.6309 56.4431 56.5263 57.3385 56.5263 58.4431ZM70.5263 60.4431C71.6309 60.4431 72.5263 59.5476 72.5263 58.4431C72.5263 57.3385 71.6309 56.4431 70.5263 56.4431C69.4217 56.4431 68.5263 57.3385 68.5263 58.4431C68.5263 59.5476 69.4217 60.4431 70.5263 60.4431ZM88.5263 58.4431C88.5263 59.5476 87.6309 60.4431 86.5263 60.4431C85.4217 60.4431 84.5263 59.5476 84.5263 58.4431C84.5263 57.3385 85.4217 56.4431 86.5263 56.4431C87.6309 56.4431 88.5263 57.3385 88.5263 58.4431Z" fill="#333333"></path>
</g>
</svg>
