<svg width="16" height="18" viewBox="0 0 16 18" fill="none" xmlns="http://www.w3.org/2000/svg">
<path fill-rule="evenodd" clip-rule="evenodd" d="M12.9896 5.35582L14.0673 4.27854L13.0068 3.21814L11.8539 4.37057C10.8007 3.62449 9.57159 3.16467 8.2871 3.03616V1.49934H9.7871V0H5.2871V1.49934H6.7871V3.03616C5.50261 3.16467 4.27354 3.62449 3.22029 4.37057L2.06736 3.21814L1.00686 4.27854L2.08461 5.35582C-0.721339 8.32539 -0.632451 12.9938 2.28451 15.8545C5.20146 18.7152 9.87274 18.7152 12.7897 15.8545C15.7067 12.9938 15.7955 8.32539 12.9896 5.35582ZM7.5371 16.4927C4.2234 16.4927 1.53711 13.8076 1.53711 10.4954C1.53711 7.18311 4.2234 4.49801 7.5371 4.49801C10.8508 4.49801 13.5371 7.18311 13.5371 10.4954C13.5334 13.8061 10.8493 16.489 7.5371 16.4927ZM7.5371 10.4954V5.99734C10.0224 5.99734 12.0371 8.01117 12.0371 10.4954C12.0371 12.9795 10.0224 14.9934 7.5371 14.9934C5.05182 14.9934 3.03711 12.9795 3.03711 10.4954H7.5371Z" fill="#F07867"></path>
</svg>
