<svg width="64" height="16" viewBox="0 0 64 16" fill="none" xmlns="http://www.w3.org/2000/svg">
<path d="M8 12L3.29772 14.4721L4.19577 9.23607L0.391548 5.52786L5.64886 4.76393L8 0L10.3511 4.76393L15.6085 5.52786L11.8042 9.23607L12.7023 14.4721L8 12Z" fill="#FACE55"></path>
<path d="M32 12L27.2977 14.4721L28.1958 9.23607L24.3915 5.52786L29.6489 4.76393L32 0L34.3511 4.76393L39.6085 5.52786L35.8042 9.23607L36.7023 14.4721L32 12Z" fill="#FACE55"></path>
<path d="M56 12L51.2977 14.4721L52.1958 9.23607L48.3915 5.52786L53.6489 4.76393L56 0L58.3511 4.76393L63.6085 5.52786L59.8042 9.23607L60.7023 14.4721L56 12Z" fill="#FACE55"></path>
</svg>
